<svg id="mermaidSvgChart" width="100%" xmlns="http://www.w3.org/2000/svg" xmlns:xlink="http://www.w3.org/1999/xlink" height="272" style="max-width: 455.8828125px;" viewBox="-20 -20 455.8828125 272"><style>#mermaidSvgChart{font-family:"trebuchet ms",verdana,arial,sans-serif;font-size:16px;fill:#000000;}#mermaidSvgChart .error-icon{fill:#552222;}#mermaidSvgChart .error-text{fill:#552222;stroke:#552222;}#mermaidSvgChart .edge-thickness-normal{stroke-width:2px;}#mermaidSvgChart .edge-thickness-thick{stroke-width:3.5px;}#mermaidSvgChart .edge-pattern-solid{stroke-dasharray:0;}#mermaidSvgChart .edge-pattern-dashed{stroke-dasharray:3;}#mermaidSvgChart .edge-pattern-dotted{stroke-dasharray:2;}#mermaidSvgChart .marker{fill:#666;stroke:#666;}#mermaidSvgChart .marker.cross{stroke:#666;}#mermaidSvgChart svg{font-family:"trebuchet ms",verdana,arial,sans-serif;font-size:16px;}#mermaidSvgChart g.classGroup text{fill:#999;fill:#111111;stroke:none;font-family:"trebuchet ms",verdana,arial,sans-serif;font-size:10px;}#mermaidSvgChart g.classGroup text .title{font-weight:bolder;}#mermaidSvgChart .classTitle{font-weight:bolder;}#mermaidSvgChart .node rect,#mermaidSvgChart .node circle,#mermaidSvgChart .node ellipse,#mermaidSvgChart .node polygon,#mermaidSvgChart .node path{fill:#eee;stroke:#999;stroke-width:1px;}#mermaidSvgChart .divider{stroke:#999;stroke:1;}#mermaidSvgChart g.clickable{cursor:pointer;}#mermaidSvgChart g.classGroup rect{fill:#eee;stroke:#999;}#mermaidSvgChart g.classGroup line{stroke:#999;stroke-width:1;}#mermaidSvgChart .classLabel .box{stroke:none;stroke-width:0;fill:#eee;opacity:0.5;}#mermaidSvgChart .classLabel .label{fill:#999;font-size:10px;}#mermaidSvgChart .relation{stroke:#666;stroke-width:1;fill:none;}#mermaidSvgChart .dashed-line{stroke-dasharray:3;}#mermaidSvgChart #compositionStart,#mermaidSvgChart .composition{fill:#666 !important;stroke:#666 !important;stroke-width:1;}#mermaidSvgChart #compositionEnd,#mermaidSvgChart .composition{fill:#666 !important;stroke:#666 !important;stroke-width:1;}#mermaidSvgChart #dependencyStart,#mermaidSvgChart .dependency{fill:#666 !important;stroke:#666 !important;stroke-width:1;}#mermaidSvgChart #dependencyStart,#mermaidSvgChart .dependency{fill:#666 !important;stroke:#666 !important;stroke-width:1;}#mermaidSvgChart #extensionStart,#mermaidSvgChart .extension{fill:#666 !important;stroke:#666 !important;stroke-width:1;}#mermaidSvgChart #extensionEnd,#mermaidSvgChart .extension{fill:#666 !important;stroke:#666 !important;stroke-width:1;}#mermaidSvgChart #aggregationStart,#mermaidSvgChart .aggregation{fill:#eee !important;stroke:#666 !important;stroke-width:1;}#mermaidSvgChart #aggregationEnd,#mermaidSvgChart .aggregation{fill:#eee !important;stroke:#666 !important;stroke-width:1;}#mermaidSvgChart .edgeTerminals{font-size:11px;}#mermaidSvgChart:root{--mermaid-font-family:"trebuchet ms",verdana,arial,sans-serif;}#mermaidSvgChart class{fill:apa;}</style><g></g><defs><marker id="extensionStart" class="extension" refX="0" refY="7" markerWidth="190" markerHeight="240" orient="auto"><path d="M 1,7 L18,13 V 1 Z"></path></marker></defs><defs><marker id="extensionEnd" refX="19" refY="7" markerWidth="20" markerHeight="28" orient="auto"><path d="M 1,1 V 13 L18,7 Z"></path></marker></defs><defs><marker id="compositionStart" class="extension" refX="0" refY="7" markerWidth="190" markerHeight="240" orient="auto"><path d="M 18,7 L9,13 L1,7 L9,1 Z"></path></marker></defs><defs><marker id="compositionEnd" refX="19" refY="7" markerWidth="20" markerHeight="28" orient="auto"><path d="M 18,7 L9,13 L1,7 L9,1 Z"></path></marker></defs><defs><marker id="aggregationStart" class="extension" refX="0" refY="7" markerWidth="190" markerHeight="240" orient="auto"><path d="M 18,7 L9,13 L1,7 L9,1 Z"></path></marker></defs><defs><marker id="aggregationEnd" refX="19" refY="7" markerWidth="20" markerHeight="28" orient="auto"><path d="M 18,7 L9,13 L1,7 L9,1 Z"></path></marker></defs><defs><marker id="dependencyStart" class="extension" refX="0" refY="7" markerWidth="190" markerHeight="240" orient="auto"><path d="M 5,7 L9,13 L1,7 L9,1 Z"></path></marker></defs><defs><marker id="dependencyEnd" refX="19" refY="7" markerWidth="20" markerHeight="28" orient="auto"><path d="M 18,7 L9,13 L14,7 L9,1 Z"></path></marker></defs><g id="classid-__EFMigrationsHistory-0" class="classGroup" transform="translate(0,25 )"><rect x="0" y="0" width="115.828125" height="51" class=" "></rect><text y="15" x="0"><tspan class="title" x="5">__EFMigrationsHistory</tspan></text><line x1="0" y1="21" y2="21" x2="115.828125"></line><text x="5" y="31" fill="white" class="classText"><tspan x="5">MigrationId</tspan><tspan x="5" dy="10">ProductVersion</tspan></text><line x1="0" y1="47" y2="47" x2="115.828125"></line><text x="5" y="62" fill="white" class="classText"></text></g><g id="classid-Classes-1" class="classGroup" transform="translate(106.7890625,156 )"><rect x="0" y="0" width="67.40625" height="71" class=" "></rect><text y="15" x="0"><tspan class="title" x="16.8203125">Classes</tspan></text><line x1="0" y1="21" y2="21" x2="67.40625"></line><text x="5" y="31" fill="white" class="classText"><tspan x="5">Designation</tspan><tspan x="5" dy="10">Grade</tspan><tspan x="5" dy="10">Id</tspan><tspan x="5" dy="10">RowVersion</tspan></text><line x1="0" y1="67" y2="67" x2="67.40625"></line><text x="5" y="82" fill="white" class="classText"></text></g><g id="classid-Devices-2" class="classGroup" transform="translate(224.1953125,161 )"><rect x="0" y="0" width="66.0625" height="61" class=" "></rect><text y="15" x="0"><tspan class="title" x="14.7265625">Devices</tspan></text><line x1="0" y1="21" y2="21" x2="66.0625"></line><text x="5" y="31" fill="white" class="classText"><tspan x="5">Id</tspan><tspan x="5" dy="10">RowVersion</tspan><tspan x="5" dy="10">UniqueId</tspan></text><line x1="0" y1="57" y2="57" x2="66.0625"></line><text x="5" y="72" fill="white" class="classText"></text></g><g id="classid-Rooms-3" class="classGroup" transform="translate(340.2578125,151 )"><rect x="0" y="0" width="75.625" height="81" class=" "></rect><text y="15" x="0"><tspan class="title" x="22.296875">Rooms</tspan></text><line x1="0" y1="21" y2="21" x2="75.625"></line><text x="5" y="31" fill="white" class="classText"><tspan x="5">Floor</tspan><tspan x="5" dy="10">Id</tspan><tspan x="5" dy="10">Notes</tspan><tspan x="5" dy="10">RoomNumber</tspan><tspan x="5" dy="10">RowVersion</tspan></text><line x1="0" y1="77" y2="77" x2="75.625"></line><text x="5" y="92" fill="white" class="classText"></text></g><g id="classid-Pupils-4" class="classGroup" transform="translate(165.828125,0 )"><rect x="0" y="0" width="66.0625" height="101" class=" "></rect><text y="15" x="0"><tspan class="title" x="18.7578125">Pupils</tspan></text><line x1="0" y1="21" y2="21" x2="66.0625"></line><text x="5" y="31" fill="white" class="classText"><tspan x="5">ClassId</tspan><tspan x="5" dy="10">DeviceId</tspan><tspan x="5" dy="10">FirstName</tspan><tspan x="5" dy="10">Id</tspan><tspan x="5" dy="10">LastName</tspan><tspan x="5" dy="10">MatNr</tspan><tspan x="5" dy="10">RowVersion</tspan></text><line x1="0" y1="97" y2="97" x2="66.0625"></line><text x="5" y="112" fill="white" class="classText"></text></g><g id="classid-Displays-5" class="classGroup" transform="translate(344.203125,5 )"><rect x="0" y="0" width="67.734375" height="91" class=" "></rect><text y="15" x="0"><tspan class="title" x="14.7890625">Displays</tspan></text><line x1="0" y1="21" y2="21" x2="67.734375"></line><text x="5" y="31" fill="white" class="classText"><tspan x="5">Designation</tspan><tspan x="5" dy="10">Id</tspan><tspan x="5" dy="10">MacAddress</tspan><tspan x="5" dy="10">Notes</tspan><tspan x="5" dy="10">RoomId</tspan><tspan x="5" dy="10">RowVersion</tspan></text><line x1="0" y1="87" y2="87" x2="67.734375"></line><text x="5" y="102" fill="white" class="classText"></text></g><path d="M165.828125,93.22707803506893L161.60546875,98.68923169589077C157.3828125,104.15138535671262,148.9375,115.0756926783563,144.71484375,125.53784633917815C140.4921875,136,140.4921875,146,140.4921875,151L140.4921875,156" id="edge0" class="relation" marker-end="url(#extensionEnd)"></path><g class="classLabel"><rect class="box" x="137.296875" y="109.96875" width="13.796875" height="16.015625"></rect><text class="label" x="143.98585771031418" y="121.48081529748677" fill="red" text-anchor="middle">Id</text></g><path d="M231.890625,93.22707803506893L236.11328125,98.68923169589077C240.3359375,104.15138535671262,248.78125,115.0756926783563,253.00390625,126.37117967251147C257.2265625,137.66666666666666,257.2265625,149.33333333333334,257.2265625,155.16666666666666L257.2265625,161" id="edge1" class="relation" marker-end="url(#extensionEnd)"></path><g class="classLabel"><rect class="box" x="248.578125" y="111.953125" width="13.796875" height="16.015625"></rect><text class="label" x="255.2619420463001" y="123.45869467747883" fill="red" text-anchor="middle">Id</text></g><path d="M378.0703125,96L378.0703125,101C378.0703125,106,378.0703125,116,378.0703125,125.16666666666667C378.0703125,134.33333333333334,378.0703125,142.66666666666666,378.0703125,146.83333333333334L378.0703125,151" id="edge2" class="relation" marker-end="url(#extensionEnd)"></path><g class="classLabel"><rect class="box" x="371.390625" y="112" width="13.796875" height="16"></rect><text class="label" x="378.0703125" y="123.5" fill="red" text-anchor="middle">Id</text></g></svg>